<svg width="187" height="187" viewBox="0 0 187 187" fill="none" xmlns="http://www.w3.org/2000/svg">
<g clip-path="url(#clip0_1_35)">
<path d="M113.085 2.82894C100.02 -0.429941 86.2725 -0.895617 72.8954 1.99223C71.8616 2.2154 71.2045 3.2344 71.4277 4.26821C71.6508 5.30202 72.6698 5.95916 73.7037 5.73598C86.5145 2.97038 99.7112 3.42638 112.264 6.57247C142.282 14.0961 167.269 36.6658 176.785 66.1479C180.466 77.5495 182.029 89.6901 182.342 102.414C182.368 103.471 183.246 104.307 184.304 104.281C185.361 104.255 186.197 103.377 186.171 102.319C185.854 89.4212 184.272 76.9684 180.501 65.1904C170.617 34.3249 144.502 10.6657 113.085 2.82894Z" fill="#F2F2F2"/>
<path d="M63.1772 8.62287C64.1968 8.34161 64.7953 7.2871 64.514 6.26756C64.2327 5.24802 63.1782 4.64952 62.1587 4.93079C48.169 8.79014 28.4896 22.1256 16.3275 39.9407C16.3228 39.9476 16.3181 39.9546 16.3135 39.9616C5.63438 56.055 -1.0599 76.2792 0.809125 95.904C0.810904 95.9226 0.812958 95.9413 0.815286 95.9599C1.26321 99.5434 2.01518 103.12 2.76803 106.701C4.35367 114.243 5.94322 121.804 4.70425 129.485C4.53582 130.529 5.24572 131.512 6.28985 131.68C7.33398 131.849 8.31695 131.139 8.48537 130.095C9.7805 122.066 8.17236 114.234 6.56389 106.401C5.82002 102.779 5.07608 99.1558 4.61921 95.5128C2.86136 76.9689 9.19304 57.6235 19.4978 42.0897C31.1972 24.9584 50.1422 12.2188 63.1772 8.62287Z" fill="#F2F2F2"/>
<path d="M88.307 12.9014C112.35 11.4332 136.388 21.2454 152.531 40.0437C153.22 40.8461 153.128 42.0551 152.326 42.7442C151.524 43.4332 150.315 43.3413 149.625 42.539C134.274 24.6625 111.4 15.3248 88.5288 16.725C88.5207 16.7255 88.5125 16.726 88.5043 16.7264C59.5816 18.1258 32.4952 37.7467 22.5322 65.2403C22.1719 66.2346 21.0737 66.7486 20.0794 66.3883C19.085 66.0279 18.5711 64.9297 18.9314 63.9354C29.4269 34.9719 57.8693 14.3794 88.307 12.9014Z" fill="#F2F2F2"/>
<path d="M158.365 48.4099C157.776 47.5319 156.586 47.2981 155.708 47.8878C154.83 48.4774 154.596 49.6672 155.186 50.5452C164.135 63.8709 167.835 78.3718 169.298 95.5801C169.388 96.6339 170.315 97.4156 171.369 97.326C172.422 97.2365 173.204 96.3095 173.115 95.2557C171.62 77.6713 167.804 62.4638 158.365 48.4099Z" fill="#F2F2F2"/>
<path d="M171.834 103.386C172.89 103.32 173.799 104.122 173.865 105.178C174.587 116.725 174.593 129.79 173.316 139.445C173.177 140.494 172.215 141.231 171.166 141.092C170.118 140.954 169.38 139.991 169.519 138.943C170.75 129.637 170.757 116.849 170.042 105.417C169.976 104.361 170.779 103.452 171.834 103.386Z" fill="#F2F2F2"/>
<path d="M19.6404 74.5156C19.8886 73.4875 19.2564 72.4529 18.2283 72.2046C17.2003 71.9564 16.1656 72.5886 15.9174 73.6167C14.5118 79.4381 13.7821 85.4185 13.7532 91.4044C13.7234 97.574 14.8738 103.596 16.0247 109.621C16.9661 114.549 17.9078 119.479 18.204 124.492C18.5931 131.078 17.2079 137.673 14.8142 143.95C14.4374 144.938 14.933 146.045 15.9212 146.422C16.9094 146.799 18.016 146.303 18.3929 145.315C20.923 138.68 22.4567 131.533 22.0273 124.267C21.7331 119.288 20.7915 114.386 19.8502 109.487C18.7017 103.509 17.5537 97.5333 17.5832 91.4229C17.6107 85.7351 18.3041 80.0501 19.6404 74.5156Z" fill="#F2F2F2"/>
<path d="M69.8894 31.9602C70.2835 32.9417 69.8074 34.0568 68.826 34.4509C48.9727 42.4237 34.0641 60.4155 31.0227 81.6316C29.752 90.4955 31.1248 99.2756 32.4972 108.053C33.2701 112.997 34.0429 117.939 34.3434 122.895C34.9948 133.642 33.7707 145.447 26.7765 156.187C26.1994 157.074 25.013 157.324 24.1268 156.747C23.2405 156.17 22.9899 154.984 23.567 154.097C29.9395 144.312 31.1457 133.442 30.5204 123.127C30.2155 118.098 29.4476 113.098 28.6801 108.102C27.3032 99.1371 25.9277 90.1825 27.2315 81.0881C30.4789 58.4349 46.3567 39.347 67.3987 30.8968C68.3801 30.5027 69.4952 30.9788 69.8894 31.9602Z" fill="#F2F2F2"/>
<path d="M137.117 42.8629C121.455 28.1934 98.7544 23.0734 78.1235 27.5986C77.0904 27.8252 76.4366 28.8463 76.6632 29.8794C76.8898 30.9125 77.911 31.5662 78.944 31.3396C98.48 27.0547 119.855 31.9427 134.499 45.6583C146.842 57.2187 154.009 74.04 155.885 92.3926C155.993 93.4447 156.933 94.2105 157.985 94.1029C159.037 93.9954 159.803 93.0552 159.695 92.0031C157.747 72.9463 150.277 55.1889 137.117 42.8629Z" fill="#F2F2F2"/>
<path d="M159.295 101.123C160.347 101.015 161.287 101.78 161.395 102.832C163.214 120.54 162.43 139.667 159.685 158.169C159.529 159.215 158.555 159.938 157.509 159.782C156.463 159.627 155.741 158.653 155.896 157.607C158.604 139.362 159.366 120.56 157.585 103.224C157.477 102.172 158.243 101.231 159.295 101.123Z" fill="#F2F2F2"/>
<path d="M92.5305 38.9986C63.1854 38.9986 39.3423 62.4102 39.3423 91.3552C39.3423 94.4471 39.6167 97.4766 40.1397 100.422C40.3246 101.464 41.3186 102.158 42.36 101.973C43.4013 101.788 44.0956 100.794 43.9107 99.7529C43.4265 97.0255 43.1723 94.22 43.1723 91.3552C43.1723 64.5843 65.2413 42.8286 92.5305 42.8286C104.863 42.8286 116.13 47.2734 124.778 54.6178C125.584 55.3024 126.793 55.2039 127.477 54.3977C128.162 53.5916 128.063 52.3831 127.257 51.6985C117.938 43.7841 105.798 38.9986 92.5305 38.9986Z" fill="#F2F2F2"/>
<path d="M131.548 58.8385C132.311 58.1065 133.523 58.1319 134.255 58.8952C142.707 67.7082 145.412 81.5596 147.202 93.1838C149.218 106.278 149.526 119.051 149.526 124.974C149.526 126.032 148.669 126.889 147.611 126.889C146.554 126.889 145.696 126.032 145.696 124.974C145.696 119.147 145.391 106.59 143.417 93.7667C141.755 82.9751 139.359 69.751 131.491 61.5461C130.759 60.7828 130.785 59.5705 131.548 58.8385Z" fill="#F2F2F2"/>
<path d="M149.04 135.941C149.124 134.887 148.337 133.964 147.283 133.88C146.229 133.796 145.306 134.583 145.222 135.637C144.282 147.433 143.053 159.216 140.559 170.1C140.323 171.131 140.967 172.159 141.998 172.395C143.029 172.631 144.056 171.987 144.292 170.956C146.852 159.784 148.097 147.769 149.04 135.941Z" fill="#F2F2F2"/>
<path d="M43.2221 107.471C44.2598 107.266 45.2667 107.942 45.4711 108.98C49.5201 129.541 46.7229 148.22 36.0004 164.582C35.4207 165.466 34.2336 165.714 33.349 165.134C32.4644 164.554 32.2173 163.367 32.797 162.482C42.8857 147.088 45.6009 129.462 41.7132 109.72C41.5089 108.682 42.1844 107.675 43.2221 107.471Z" fill="#F2F2F2"/>
<path d="M92.5305 51.4586C73.4815 51.4586 54.7945 66.2039 52.8871 84.7358C52.0521 92.8489 53.2251 100.841 54.3986 108.835C55.4233 115.816 56.4483 122.8 56.1371 129.869C55.4248 146.047 50.678 159.402 42.5217 170.401C41.8917 171.251 42.0697 172.45 42.9193 173.08C43.7688 173.71 44.9682 173.532 45.5981 172.682C54.2489 161.016 59.2206 146.91 59.9634 130.037C60.2732 123 59.245 116.039 58.2175 109.082C57.0426 101.127 55.8685 93.1778 56.697 85.1279C58.3726 68.8479 75.1293 55.2886 92.5305 55.2886C100.647 55.2886 121.646 59.6833 128.325 81.4431C132.511 95.0791 133.653 113.534 132.639 131.462C131.625 149.388 128.472 166.534 124.231 177.528C123.85 178.515 124.342 179.623 125.328 180.004C126.315 180.385 127.424 179.893 127.804 178.906C132.241 167.404 135.437 149.824 136.463 131.678C137.489 113.535 136.361 94.5694 131.987 80.3192C124.572 56.1649 101.329 51.4586 92.5305 51.4586Z" fill="#F2F2F2"/>
<path d="M63.0602 164.585C63.946 165.163 64.1958 166.349 63.618 167.235C62.4304 169.056 61.3858 170.961 60.3411 172.866C59.2964 174.771 58.2516 176.676 57.0639 178.497C56.4861 179.383 55.2996 179.633 54.4137 179.055C53.5279 178.477 53.2781 177.29 53.8559 176.405C55.0434 174.584 56.088 172.679 57.1327 170.774C58.1774 168.869 59.2223 166.963 60.41 165.143C60.9878 164.257 62.1743 164.007 63.0602 164.585Z" fill="#F2F2F2"/>
<path d="M79.4577 71.3372C80.3368 70.7492 80.5728 69.5598 79.9848 68.6807C79.3968 67.8016 78.2074 67.5656 77.3283 68.1536C69.7452 73.2257 65.0928 80.2003 65.0928 90.4178C65.0928 96.5018 66.1707 101.475 67.2761 106.576C68.9304 114.208 70.0524 121.825 69.8508 129.664C69.6059 139.184 67.7432 147.884 64.1627 156.171C63.7432 157.142 64.1902 158.269 65.1611 158.689C66.1319 159.108 67.259 158.661 67.6785 157.69C71.4644 148.928 73.4228 139.743 73.6795 129.763C73.889 121.616 72.7359 113.699 71.0201 105.766C69.9121 100.643 68.9228 96.0689 68.9228 90.4178C68.9228 81.6634 72.774 75.8076 79.4577 71.3372Z" fill="#F2F2F2"/>
<path d="M86.932 64.6087C94.8785 62.9887 103.43 64.9905 109.724 70.085C120.967 79.1848 122.462 95.7799 123.674 109.228L123.736 109.913C125.301 127.247 123.509 144.084 119.899 160.993C119.678 162.027 118.66 162.687 117.626 162.466C116.592 162.245 115.932 161.227 116.153 160.193C119.709 143.538 121.443 127.102 119.921 110.257C119.871 109.699 119.821 109.134 119.77 108.562L119.769 108.553C118.693 96.4009 117.345 81.1805 107.315 73.062C101.933 68.7065 94.5528 66.9639 87.697 68.3615C86.6607 68.5728 85.6494 67.904 85.4381 66.8676C85.2268 65.8313 85.8957 64.82 86.932 64.6087Z" fill="#F2F2F2"/>
<path d="M117.192 170.522C117.453 169.497 116.834 168.454 115.809 168.194C114.784 167.933 113.741 168.552 113.48 169.577C112.323 174.124 110.539 178.229 108.277 182.008C107.734 182.915 108.029 184.091 108.937 184.635C109.844 185.178 111.02 184.882 111.563 183.975C114.001 179.902 115.936 175.456 117.192 170.522Z" fill="#F2F2F2"/>
<path d="M107.828 142.732C108.878 142.856 109.629 143.808 109.504 144.858C107.696 160.142 103.612 173.773 97.0607 185.596C96.5481 186.521 95.3826 186.855 94.4575 186.342C93.5324 185.83 93.1981 184.664 93.7107 183.739C99.9809 172.425 103.94 159.289 105.701 144.408C105.825 143.358 106.777 142.607 107.828 142.732Z" fill="#F2F2F2"/>
<path d="M107.433 89.4135C106.105 82.3196 100.017 76.8932 92.6253 76.8932C82.6162 76.8932 75.5938 86.982 78.0685 96.3685C82.2557 112.937 82.9431 128.906 80.1085 144.286L80.1064 144.297C77.6466 158.106 72.9229 170.529 66.4795 181.055C65.9273 181.957 66.211 183.136 67.113 183.688C68.0151 184.24 69.194 183.957 69.7461 183.055C76.4531 172.097 81.3375 159.222 83.8761 144.974C86.8192 129.001 86.09 112.472 81.7792 95.4201L81.774 95.4001C79.9178 88.3787 85.0917 80.7232 92.6253 80.7232C98.0619 80.7232 102.652 84.7226 103.666 90.1051C106.453 106.273 107.905 121.266 106.871 134.175C106.787 135.23 107.573 136.153 108.627 136.237C109.682 136.322 110.605 135.535 110.689 134.481C111.761 121.101 110.248 105.739 107.438 89.4404C107.436 89.4314 107.435 89.4224 107.433 89.4135Z" fill="#F2F2F2"/>
<path d="M86.911 172.354C87.8517 172.837 88.2224 173.992 87.739 174.932L82.6648 184.807C82.1814 185.748 81.0269 186.118 80.0862 185.635C79.1455 185.152 78.7748 183.997 79.2582 183.056L84.3325 173.182C84.8159 172.241 85.9703 171.87 86.911 172.354Z" fill="#F2F2F2"/>
<path d="M94.0496 91.2601C93.8077 90.2305 92.777 89.5919 91.7474 89.8338C90.7178 90.0756 90.0792 91.1064 90.3211 92.136C96.779 119.626 95.892 143.765 88.0259 164.328C87.6481 165.316 88.1425 166.423 89.1303 166.801C90.1182 167.178 91.2253 166.684 91.6031 165.696C99.8049 144.255 100.639 119.308 94.0496 91.2601Z" fill="#F2F2F2"/>
</g>
<defs>
<clipPath id="clip0_1_35">
<rect width="186.503" height="186.503" fill="white" transform="translate(0.496948 0.0797729)"/>
</clipPath>
</defs>
</svg>
