<svg width="188" height="187" viewBox="0 0 188 187" fill="none" xmlns="http://www.w3.org/2000/svg">
<path fill-rule="evenodd" clip-rule="evenodd" d="M10.385 51.2588V30.3137C10.385 18.8649 19.6994 9.55063 31.148 9.55063H52.0932C54.7084 9.55063 56.8286 7.43043 56.8286 4.8152C56.8286 2.19997 54.7084 0.0797729 52.0932 0.0797729H31.148C14.4771 0.0797729 0.914124 13.6426 0.914124 30.3137V51.2588C0.914124 53.8741 3.03432 55.9943 5.64955 55.9943C8.26478 55.9943 10.385 53.8741 10.385 51.2588ZM52.0932 177.112C54.7084 177.112 56.8286 179.232 56.8286 181.847C56.8286 184.463 54.7084 186.583 52.0932 186.583H31.148C14.4771 186.583 0.914124 173.02 0.914124 156.349V135.404C0.914124 132.789 3.03432 130.668 5.64955 130.668C8.26478 130.668 10.385 132.789 10.385 135.404V156.349C10.385 167.798 19.6994 177.112 31.148 177.112H52.0932ZM187.417 135.404V156.349C187.417 173.02 173.854 186.583 157.183 186.583H136.238C133.623 186.583 131.503 184.463 131.503 181.847C131.503 179.232 133.623 177.112 136.238 177.112H157.183C168.632 177.112 177.946 167.798 177.946 156.349V135.404C177.946 132.789 180.067 130.668 182.682 130.668C185.297 130.668 187.417 132.789 187.417 135.404ZM187.417 30.3137V51.2588C187.417 53.8741 185.297 55.9943 182.682 55.9943C180.067 55.9943 177.946 53.8741 177.946 51.2588V30.3137C177.946 18.8649 168.632 9.55063 157.183 9.55063H136.238C133.623 9.55063 131.503 7.43043 131.503 4.8152C131.503 2.19997 133.623 0.0797729 136.238 0.0797729H157.183C173.854 0.0797729 187.417 13.6426 187.417 30.3137ZM126.845 137.923C128.84 136.081 128.963 132.969 127.121 130.974C125.278 128.979 122.167 128.856 120.171 130.699C113.072 137.256 103.837 140.867 94.1652 140.867C84.4938 140.867 75.2579 137.256 68.159 130.699C66.1635 128.856 63.0529 128.979 61.2099 130.974C59.3671 132.969 59.4904 136.081 61.4855 137.923C70.4072 146.164 82.0128 150.702 94.1652 150.702C106.318 150.702 117.923 146.164 126.845 137.923ZM104.001 70.3827V105.352C104.001 112.282 98.3633 117.919 91.4337 117.919H87.4268C84.7108 117.919 82.5092 115.717 82.5092 113.002C82.5092 110.286 84.7108 108.084 87.4268 108.084H91.4337C92.9401 108.084 94.1657 106.858 94.1657 105.352V70.3827C94.1657 67.6667 96.3673 65.4651 99.0832 65.4651C101.799 65.4651 104.001 67.6667 104.001 70.3827ZM137.877 84.1336V70.1095C137.877 67.5445 135.798 65.4651 133.233 65.4651C130.668 65.4651 128.589 67.5445 128.589 70.1095V84.1336C128.589 86.6986 130.668 88.778 133.233 88.778C135.798 88.778 137.877 86.6986 137.877 84.1336ZM51.5468 84.1336C51.5468 86.6986 53.6262 88.778 56.1912 88.778C58.7561 88.778 60.8355 86.6986 60.8355 84.1336V70.1095C60.8355 67.5445 58.7561 65.4651 56.1912 65.4651C53.6262 65.4651 51.5468 67.5445 51.5468 70.1095V84.1336Z" fill="#F2F2F2"/>
</svg>
